<?xml version="1.0" encoding="UTF-8"?>
<svg id="Layer_2" data-name="Layer 2" xmlns="http://www.w3.org/2000/svg" viewBox="0 0 175.12 176.22">
  <defs>
    <style>
      .cls-1 {
        fill: #737474;
      }

      .cls-1, .cls-2, .cls-3, .cls-4, .cls-5, .cls-6 {
        stroke-width: 0px;
      }

      .cls-2 {
        fill: #181818;
      }

      .cls-3 {
        fill: #bfbfbf;
      }

      .cls-4 {
        fill: #414141;
      }

      .cls-5 {
        fill: #ddd;
      }

      .cls-6 {
        fill: #7f7f7f;
      }
    </style>
  </defs>
  <g id="Layer_2-2" data-name="Layer 2">
    <g>
      <g>
        <polygon class="cls-3" points="151.84 43.57 115.87 .02 86.98 122 151.84 43.57"/>
        <path class="cls-5" d="M139.95,93.77l11.89-50.2-64.85,78.43,48.08-22.33c2.47-1.15,4.27-3.32,4.88-5.9Z"/>
        <path class="cls-2" d="M86.98,122L22.18,43.53l12.49,52.9c.21.88.82,1.62,1.66,2.01l50.65,23.56Z"/>
        <polygon class="cls-4" points="58.17 0 22.18 43.53 86.98 122 58.17 0"/>
        <polygon class="cls-1" points="115.87 .02 58.17 0 86.98 122 115.87 .02"/>
      </g>
      <g>
        <path class="cls-6" d="M0,175.88v-22.43h14.16v2.29H2.42v7.74h10.33v2.35H2.42v7.77h11.74v2.29H0Z"/>
        <path class="cls-6" d="M23.74,175.88v-22.43h2.42v20.08h11.47v2.35h-13.89Z"/>
        <path class="cls-6" d="M43.35,175.88l8.95-22.43h2.42l8.91,22.43h-2.59l-7.77-20.18.5-.07-7.8,20.25h-2.62ZM47.29,168.89l1.04-2.32h11l.17,2.32h-12.21Z"/>
        <path class="cls-6" d="M77.72,176.22c-1.12,0-2.07-.08-2.86-.24-.79-.16-1.49-.38-2.12-.67-.63-.29-1.31-.63-2.05-1.01v-2.62c.72.61,1.68,1.14,2.89,1.61,1.21.47,2.62.71,4.24.71,1.7,0,2.94-.36,3.72-1.09s1.16-1.65,1.16-2.77c0-.94-.26-1.7-.77-2.27-.52-.57-1.18-1.04-1.98-1.41-.81-.37-1.66-.72-2.56-1.06-.76-.27-1.52-.55-2.27-.86-.75-.3-1.43-.68-2.03-1.14-.61-.46-1.09-1.05-1.45-1.78-.36-.73-.54-1.64-.54-2.74,0-.6.12-1.24.35-1.92.24-.67.62-1.3,1.14-1.88.53-.58,1.23-1.05,2.12-1.41.89-.36,1.97-.54,3.25-.54.87,0,1.62.06,2.24.19.62.12,1.21.3,1.77.54.56.24,1.19.52,1.88.86v2.49c-.58-.34-1.14-.64-1.66-.92-.53-.28-1.11-.5-1.75-.67-.64-.17-1.42-.25-2.34-.25-1.1,0-1.98.16-2.64.47-.66.31-1.14.73-1.45,1.25s-.45,1.06-.45,1.65c0,.92.21,1.65.62,2.19.41.54,1,.98,1.75,1.33.75.35,1.62.69,2.61,1.03.78.27,1.57.57,2.35.89.78.33,1.5.73,2.14,1.21.64.48,1.15,1.09,1.55,1.82.39.73.59,1.63.59,2.71,0,1.01-.22,2-.67,2.98-.45.98-1.21,1.78-2.29,2.42s-2.57.96-4.47.96Z"/>
        <path class="cls-6" d="M99.99,175.88v-20.15h-7.94v-2.29h18.26v2.29h-7.9v20.15h-2.42Z"/>
        <path class="cls-6" d="M118.05,175.88v-22.43h9.22c2.2,0,3.85.55,4.96,1.65,1.11,1.1,1.66,2.72,1.66,4.88,0,1.3-.27,2.46-.81,3.46s-1.29,1.81-2.25,2.39c-.96.58-2.1.88-3.4.88l1.01-.67,6.46,9.85h-2.86l-6.66-10.29,1.21,1.25h-6.12v9.05h-2.42ZM120.47,164.55h5.68c1.86,0,3.21-.38,4.05-1.13.84-.75,1.26-1.84,1.26-3.28,0-1.34-.31-2.42-.94-3.21-.63-.8-1.81-1.19-3.53-1.19h-6.52v8.81Z"/>
        <path class="cls-6" d="M143.48,175.88v-22.43h2.42v22.43h-2.42Z"/>
        <path class="cls-6" d="M165.03,176.22c-2.22,0-4.08-.43-5.57-1.29-1.49-.86-2.61-2.15-3.36-3.85-.75-1.7-1.13-3.83-1.13-6.39,0-3.81.85-6.69,2.54-8.63s4.2-2.91,7.52-2.91c2.24,0,4.11.43,5.6,1.29s2.61,2.15,3.36,3.85c.75,1.7,1.13,3.83,1.13,6.39,0,3.81-.85,6.69-2.54,8.63-1.69,1.94-4.21,2.91-7.55,2.91ZM165.03,173.93c1.77,0,3.22-.32,4.34-.97s1.94-1.66,2.47-3.03c.53-1.37.79-3.12.79-5.25s-.26-3.87-.79-5.23c-.53-1.36-1.35-2.37-2.47-3.03s-2.57-.99-4.34-.99-3.18.33-4.31.99c-1.12.66-1.95,1.67-2.47,3.03-.53,1.36-.79,3.1-.79,5.23s.26,3.88.79,5.25c.53,1.37,1.35,2.38,2.47,3.03,1.12.65,2.56.97,4.31.97Z"/>
      </g>
    </g>
  </g>
</svg>