<?xml version="1.0" encoding="UTF-8"?>
<svg id="Layer_2" data-name="Layer 2" xmlns="http://www.w3.org/2000/svg" viewBox="0 0 864.5 176.41">
  <defs>
    <style>
      .cls-1 {
        fill: #737474;
      }

      .cls-1, .cls-2, .cls-3, .cls-4, .cls-5, .cls-6 {
        stroke-width: 0px;
      }

      .cls-2 {
        fill: #181818;
      }

      .cls-3 {
        fill: #bfbfbf;
      }

      .cls-4 {
        fill: #414141;
      }

      .cls-5 {
        fill: #ddd;
      }

      .cls-6 {
        fill: #7f7f7f;
      }
    </style>
  </defs>
  <g id="Layer_2-2" data-name="Layer 2">
    <g>
      <g>
        <polygon class="cls-3" points="180.93 63 130.75 .03 90.43 176.41 180.93 63"/>
        <polygon class="cls-3" points="180.93 63 130.75 .03 90.43 176.41 180.93 63"/>
        <path class="cls-5" d="M164.34,135.59l16.59-72.59-90.5,113.41,67.1-32.29c3.45-1.66,5.96-4.8,6.81-8.53Z"/>
        <path class="cls-5" d="M164.34,135.59l16.59-72.59-90.5,113.41,67.1-32.29c3.45-1.66,5.96-4.8,6.81-8.53Z"/>
        <path class="cls-2" d="M90.43,176.41L0,62.94l17.43,76.5c.29,1.27,1.14,2.34,2.32,2.91l70.68,34.06Z"/>
        <path class="cls-2" d="M90.43,176.41L0,62.94l17.43,76.5c.29,1.27,1.14,2.34,2.32,2.91l70.68,34.06Z"/>
        <polygon class="cls-4" points="50.22 0 0 62.94 90.43 176.41 50.22 0"/>
        <polygon class="cls-4" points="50.22 0 0 62.94 90.43 176.41 50.22 0"/>
        <polygon class="cls-1" points="130.75 .03 50.22 0 90.43 176.41 130.75 .03"/>
        <polygon class="cls-1" points="130.75 .03 50.22 0 90.43 176.41 130.75 .03"/>
      </g>
      <g>
        <path class="cls-6" d="M251.62,127.46V48.95h49.55v8h-41.08v27.07h36.14v8.24h-36.14v27.19h41.08v8h-49.55Z"/>
        <path class="cls-6" d="M334.72,127.46V48.95h8.47v70.27h40.14v8.24h-48.61Z"/>
        <path class="cls-6" d="M403.34,127.46l31.31-78.51h8.47l31.19,78.51h-9.06l-27.19-70.62,1.77-.24-27.31,70.86h-9.18ZM417.11,102.98l3.65-8.12h38.49l.59,8.12h-42.73Z"/>
        <path class="cls-6" d="M523.63,128.64c-3.92,0-7.26-.28-10-.82-2.75-.55-5.22-1.33-7.42-2.35-2.2-1.02-4.59-2.2-7.18-3.53v-9.18c2.51,2.12,5.89,4,10.12,5.65,4.24,1.65,9.18,2.47,14.83,2.47,5.96,0,10.3-1.27,13.01-3.83,2.71-2.55,4.06-5.79,4.06-9.71,0-3.29-.9-5.94-2.71-7.94-1.81-2-4.12-3.65-6.94-4.94-2.83-1.29-5.81-2.53-8.95-3.71-2.67-.94-5.32-1.94-7.95-3-2.63-1.06-5-2.39-7.12-4-2.12-1.61-3.81-3.69-5.06-6.24-1.26-2.55-1.88-5.75-1.88-9.59,0-2.12.41-4.36,1.24-6.71.82-2.35,2.16-4.55,4-6.59,1.84-2.04,4.32-3.69,7.42-4.94,3.1-1.25,6.89-1.88,11.36-1.88,3.06,0,5.67.22,7.83.65,2.16.43,4.22,1.06,6.18,1.88,1.96.82,4.16,1.82,6.59,3v8.71c-2.04-1.18-3.98-2.25-5.83-3.24-1.84-.98-3.88-1.77-6.12-2.35-2.24-.59-4.96-.88-8.18-.88-3.85,0-6.93.55-9.24,1.65-2.32,1.1-4,2.55-5.06,4.35-1.06,1.81-1.59,3.73-1.59,5.77,0,3.22.72,5.77,2.18,7.65,1.45,1.88,3.49,3.43,6.12,4.65,2.63,1.22,5.67,2.41,9.12,3.59,2.75.94,5.49,1.98,8.24,3.12,2.75,1.14,5.24,2.55,7.47,4.24,2.24,1.69,4.04,3.81,5.41,6.36,1.37,2.55,2.06,5.71,2.06,9.48,0,3.53-.79,7-2.35,10.42-1.57,3.41-4.24,6.24-8,8.47s-8.99,3.35-15.66,3.35Z"/>
        <path class="cls-6" d="M601.55,127.46V56.95h-27.78v-8h63.91v8h-27.66v70.5h-8.47Z"/>
        <path class="cls-6" d="M664.76,127.46V48.95h32.25c7.69,0,13.48,1.92,17.36,5.77,3.88,3.84,5.83,9.53,5.83,17.07,0,4.55-.94,8.59-2.83,12.12-1.88,3.53-4.51,6.32-7.89,8.36-3.37,2.04-7.34,3.06-11.89,3.06l3.53-2.35,22.6,34.49h-10.01l-23.3-36.02,4.24,4.35h-21.42v31.66h-8.47ZM673.23,87.79h19.89c6.51,0,11.24-1.31,14.18-3.94,2.94-2.63,4.41-6.45,4.41-11.48,0-4.71-1.1-8.45-3.29-11.24-2.2-2.78-6.32-4.18-12.36-4.18h-22.83v30.84Z"/>
        <path class="cls-6" d="M753.74,127.46V48.95h8.47v78.51h-8.47Z"/>
        <path class="cls-6" d="M829.19,128.64c-7.77,0-14.26-1.51-19.48-4.53-5.22-3.02-9.14-7.51-11.77-13.48-2.63-5.96-3.94-13.42-3.94-22.36,0-13.34,2.96-23.4,8.89-30.19,5.92-6.79,14.69-10.18,26.31-10.18,7.85,0,14.38,1.51,19.6,4.53,5.22,3.02,9.14,7.51,11.77,13.48,2.63,5.96,3.94,13.42,3.94,22.36,0,13.34-2.96,23.4-8.89,30.19-5.93,6.79-14.73,10.18-26.42,10.18ZM829.19,120.63c6.2,0,11.26-1.14,15.18-3.41,3.92-2.28,6.81-5.81,8.65-10.59,1.84-4.79,2.77-10.91,2.77-18.36s-.92-13.55-2.77-18.3c-1.84-4.75-4.73-8.28-8.65-10.59-3.92-2.31-8.99-3.47-15.18-3.47s-11.14,1.16-15.07,3.47c-3.92,2.32-6.81,5.85-8.65,10.59-1.84,4.75-2.77,10.85-2.77,18.3s.92,13.58,2.77,18.36c1.84,4.79,4.73,8.32,8.65,10.59,3.92,2.28,8.95,3.41,15.07,3.41Z"/>
      </g>
    </g>
  </g>
</svg>